AndikaMtihani-BoldItalic.ufo
<glyph name="Apos" format="1">
  <advance width="605"/>
  <unicode hex="0027"/>
  <outline>
    <contour>
      <point x="598" y="1035" type="line"/>
      <point x="637" y="1174"/>
      <point x="676" y="1326"/>
      <point x="766" y="1569" type="curve"/>
      <point x="521" y="1569" type="line"/>
      <point x="491" y="1326"/>
      <point x="453" y="1174"/>
      <point x="423" y="1035" type="curve"/>
    </contour>
  </outline>
</glyph>
<glyph name="HyphenMinus" format="1">
  <advance width="875"/>
  <unicode hex="002D"/>
  <outline>
    <contour>
      <point x="149" y="520" type="line"/>
      <point x="884" y="520" type="line"/>
      <point x="936" y="728" type="line"/>
      <point x="201" y="728" type="line"/>
    </contour>
    <contour>
      <point x="665" y="1100" type="move" name="U"/>
    </contour>
  </outline>
</glyph>
<glyph name="DigitFour" format="1">
  <advance width="1180"/>
  <unicode hex="0034"/>
  <outline>
    <contour>
      <point x="1180" y="342" type="line"/>
      <point x="1235" y="564" type="line"/>
      <point x="1075" y="564" type="line"/>
      <point x="1295" y="1445" type="line"/>
      <point x="945" y="1445" type="line"/>
      <point x="120" y="564" type="line"/>
      <point x="65" y="342" type="line"/>
      <point x="755" y="342" type="line"/>
      <point x="670" y="0" type="line"/>
      <point x="935" y="0" type="line"/>
      <point x="1020" y="342" type="line"/>
    </contour>
    <contour>
      <point x="954" y="1143" type="line"/>
      <point x="810" y="564" type="line"/>
      <point x="385" y="564" type="line"/>
    </contour>
    <contour>
      <point x="522" y="-100" type="move" name="L"/>
    </contour>
    <contour>
      <point x="929" y="1530" type="move" name="U"/>
    </contour>
  </outline>
</glyph>
<glyph name="EqSgn" format="1">
  <advance width="1180"/>
  <unicode hex="003D"/>
  <outline>
    <contour>
      <point x="168" y="436" type="line"/>
      <point x="1128" y="436" type="line"/>
      <point x="1180" y="643" type="line"/>
      <point x="220" y="643" type="line"/>
    </contour>
    <contour>
      <point x="259" y="802" type="line"/>
      <point x="1219" y="802" type="line"/>
      <point x="1271" y="1010" type="line"/>
      <point x="311" y="1010" type="line"/>
    </contour>
  </outline>
</glyph>
<glyph name="LtnCapA" format="1">
  <advance width="1465"/>
  <unicode hex="0041"/>
  <outline>
    <contour>
      <point x="1055" y="0" type="line"/>
      <point x="1338" y="0" type="line"/>
      <point x="1322" y="79"/>
      <point x="1312" y="166"/>
      <point x="1295" y="351" type="curve" smooth="yes"/>
      <point x="1198" y="1445" type="line"/>
      <point x="842" y="1445" type="line"/>
      <point x="199" y="351" type="line" smooth="yes"/>
      <point x="89" y="164"/>
      <point x="37" y="80"/>
      <point x="-18" y="0" type="curve"/>
      <point x="290" y="0" type="line"/>
      <point x="487" y="351" type="line"/>
      <point x="1031" y="351" type="line"/>
    </contour>
    <contour>
      <point x="973" y="1216" type="line"/>
      <point x="1016" y="564" type="line"/>
      <point x="606" y="564" type="line"/>
    </contour>
    <contour>
      <point x="1054" y="1530" type="move" name="U"/>
    </contour>
    <contour>
      <point x="647" y="-100" type="move" name="L"/>
    </contour>
    <contour>
      <point x="1435" y="0" type="move" name="O"/>
    </contour>
    <contour>
      <point x="1215" y="0" type="move" name="H"/>
    </contour>
  </outline>
</glyph>
<glyph name="LtnCapI" format="1">
  <advance width="1025"/>
  <unicode hex="0049"/>
  <outline>
    <contour>
      <point x="430" y="1445" type="line"/>
      <point x="379" y="1242" type="line"/>
      <point x="619" y="1242" type="line"/>
      <point x="360" y="203" type="line"/>
      <point x="120" y="203" type="line"/>
      <point x="70" y="0" type="line"/>
      <point x="835" y="0" type="line"/>
      <point x="885" y="203" type="line"/>
      <point x="645" y="203" type="line"/>
      <point x="904" y="1242" type="line"/>
      <point x="1144" y="1242" type="line"/>
      <point x="1195" y="1445" type="line"/>
    </contour>
    <contour>
      <point x="460" y="0" type="move" name="H"/>
    </contour>
    <contour>
      <point x="431" y="-100" type="move" name="L"/>
    </contour>
    <contour>
      <point x="652" y="0" type="move" name="O"/>
    </contour>
    <contour>
      <point x="1254" y="1200" type="move" name="R"/>
    </contour>
    <contour>
      <point x="842" y="1530" type="move" name="U"/>
    </contour>
  </outline>
</glyph>
<glyph name="LtnCapV" format="1">
  <advance width="1445"/>
  <unicode hex="0056"/>
  <outline>
    <contour>
      <point x="1405" y="1445" type="line"/>
      <point x="721" y="257" type="line"/>
      <point x="620" y="1445" type="line"/>
      <point x="325" y="1445" type="line"/>
      <point x="339" y="1364"/>
      <point x="354" y="1275"/>
      <point x="375" y="1084" type="curve" smooth="yes"/>
      <point x="495" y="0" type="line"/>
      <point x="830" y="0" type="line"/>
      <point x="1490" y="1084" type="line" smooth="yes"/>
      <point x="1606" y="1276"/>
      <point x="1664" y="1364"/>
      <point x="1720" y="1445" type="curve"/>
    </contour>
    <contour>
      <point x="670" y="0" type="move" name="H"/>
    </contour>
    <contour>
      <point x="637" y="-100" type="move" name="L"/>
    </contour>
    <contour>
      <point x="870" y="0" type="move" name="O"/>
    </contour>
    <contour>
      <point x="1044" y="1530" type="move" name="U"/>
    </contour>
  </outline>
</glyph>
<glyph name="LowLine" format="1">
  <advance width="1254"/>
  <unicode hex="005F"/>
  <outline>
    <contour>
      <point x="-146" y="-347" type="line"/>
      <point x="1127" y="-347" type="line"/>
      <point x="1179" y="-139" type="line"/>
      <point x="-94" y="-139" type="line"/>
    </contour>
  </outline>
</glyph>
<glyph name="GraveAccent" format="1">
  <advance width="620"/>
  <unicode hex="0060"/>
  <outline>
    <contour>
      <point x="265" y="1584" type="line"/>
      <point x="587" y="1188" type="line"/>
      <point x="817" y="1188" type="line"/>
      <point x="595" y="1584" type="line"/>
    </contour>
    <contour>
      <point x="848" y="1635" type="move" name="U"/>
    </contour>
  </outline>
</glyph>
<glyph name="Macron" format="1">
  <advance width="810"/>
  <unicode hex="00AF"/>
  <outline>
    <contour>
      <point x="246" y="1228" type="line"/>
      <point x="1076" y="1228" type="line"/>
      <point x="1127" y="1435" type="line"/>
      <point x="297" y="1435" type="line"/>
    </contour>
  </outline>
</glyph>
<glyph name="PlusMinusSgn" format="1">
  <advance width="1180"/>
  <unicode hex="00B1"/>
  <outline>
    <contour>
      <point x="766" y="1351" type="line"/>
      <point x="545" y="465" type="line"/>
      <point x="760" y="465" type="line"/>
      <point x="981" y="1351" type="line"/>
    </contour>
    <contour>
      <point x="293" y="797" type="line"/>
      <point x="1183" y="797" type="line"/>
      <point x="1235" y="1005" type="line"/>
      <point x="345" y="1005" type="line"/>
    </contour>
    <contour>
      <point x="134" y="158" type="line"/>
      <point x="1024" y="158" type="line"/>
      <point x="1076" y="366" type="line"/>
      <point x="186" y="366" type="line"/>
    </contour>
  </outline>
</glyph>
<glyph name="AcuteAccent" format="1">
  <advance width="620"/>
  <unicode hex="00B4"/>
  <outline>
    <contour>
      <point x="535" y="1584" type="line"/>
      <point x="177" y="1188" type="line"/>
      <point x="417" y="1188" type="line"/>
      <point x="904" y="1584" type="line"/>
    </contour>
    <contour>
      <point x="538" y="1635" type="move" name="U"/>
    </contour>
  </outline>
</glyph>
<glyph name="MultSgn" format="1">
  <advance width="1180"/>
  <unicode hex="00D7"/>
  <outline>
    <contour>
      <point x="345" y="997" type="line"/>
      <point x="568" y="728" type="line"/>
      <point x="268" y="460" type="line"/>
      <point x="403" y="298" type="line"/>
      <point x="698" y="557" type="line"/>
      <point x="915" y="290" type="line"/>
      <point x="1084" y="435" type="line"/>
      <point x="867" y="702" type="line"/>
      <point x="1173" y="968" type="line"/>
      <point x="1031" y="1135" type="line"/>
      <point x="737" y="872" type="line"/>
      <point x="514" y="1142" type="line"/>
    </contour>
  </outline>
</glyph>
<glyph name="Caron" format="2">
  <advance width="860"/>
  <unicode hex="02C7"/>
  <anchor x="788" y="1635" name="U"/>
  <outline>
    <contour>
      <point x="974" y="1584" type="line"/>
      <point x="718" y="1356" type="line"/>
      <point x="574" y="1584" type="line"/>
      <point x="334" y="1584" type="line"/>
      <point x="546" y="1188" type="line"/>
      <point x="846" y="1188" type="line"/>
      <point x="1214" y="1584" type="line"/>
    </contour>
  </outline>
</glyph>
<glyph name="DotAbv" format="1">
  <advance width="330"/>
  <unicode hex="02D9"/>
  <outline>
    <contour>
      <point x="277" y="1338" type="curve" smooth="yes"/>
      <point x="277" y="1257"/>
      <point x="338" y="1197"/>
      <point x="424" y="1197" type="curve" smooth="yes"/>
      <point x="543" y="1197"/>
      <point x="637" y="1292"/>
      <point x="637" y="1403" type="curve" smooth="yes"/>
      <point x="637" y="1484"/>
      <point x="577" y="1544"/>
      <point x="490" y="1544" type="curve" smooth="yes"/>
      <point x="373" y="1544"/>
      <point x="277" y="1448"/>
    </contour>
  </outline>
</glyph>
<glyph name="Ogonek" format="1">
  <advance width="465"/>
  <unicode hex="02DB"/>
  <outline>
    <contour>
      <point x="30" y="0" type="line"/>
      <point x="-81" y="-51"/>
      <point x="-180" y="-140"/>
      <point x="-180" y="-263" type="curve" smooth="yes"/>
      <point x="-180" y="-362"/>
      <point x="-84" y="-436"/>
      <point x="42" y="-436" type="curve" smooth="yes"/>
      <point x="116" y="-436"/>
      <point x="207" y="-404"/>
      <point x="279" y="-347" type="curve"/>
      <point x="284" y="-208" type="line"/>
      <point x="236" y="-251"/>
      <point x="133" y="-282"/>
      <point x="90" y="-282" type="curve" smooth="yes"/>
      <point x="37" y="-282"/>
      <point x="6" y="-259"/>
      <point x="6" y="-214" type="curve" smooth="yes"/>
      <point x="6" y="-128"/>
      <point x="135" y="-36"/>
      <point x="210" y="0" type="curve"/>
    </contour>
    <contour>
      <point x="230" y="-400" type="move" name="L"/>
    </contour>
  </outline>
</glyph>
<glyph name="DblAcuteAccent" format="1">
  <advance width="900"/>
  <unicode hex="02DD"/>
  <outline>
    <contour>
      <point x="514" y="1584" type="line"/>
      <point x="236" y="1188" type="line"/>
      <point x="456" y="1188" type="line"/>
      <point x="834" y="1584" type="line"/>
    </contour>
    <contour>
      <point x="924" y="1584" type="line"/>
      <point x="646" y="1188" type="line"/>
      <point x="866" y="1188" type="line"/>
      <point x="1244" y="1584" type="line"/>
    </contour>
  </outline>
</glyph>
<glyph name="CombAcute" format="1">
  <advance width="0"/>
  <unicode hex="0301"/>
  <outline>
    <contour>
      <point x="-165" y="1584" type="line"/>
      <point x="-523" y="1188" type="line"/>
      <point x="-283" y="1188" type="line"/>
      <point x="204" y="1584" type="line"/>
    </contour>
    <contour>
      <point x="-251" y="1635" type="move" name="U"/>
    </contour>
    <contour>
      <point x="-325" y="1100" type="move" name="_U"/>
    </contour>
  </outline>
</glyph>
<glyph name="Hyphen" format="1">
  <advance width="860"/>
  <unicode hex="2010"/>
  <outline>
    <contour>
      <point x="139" y="520" type="line"/>
      <point x="879" y="520" type="line"/>
      <point x="931" y="728" type="line"/>
      <point x="191" y="728" type="line"/>
    </contour>
    <contour>
      <point x="655" y="1100" type="move" name="U"/>
    </contour>
  </outline>
</glyph>
<glyph name="HorizBar" format="1">
  <advance width="1980"/>
  <unicode hex="2015"/>
  <outline>
    <contour>
      <point x="1989" y="520" type="line"/>
      <point x="2041" y="728" type="line"/>
      <point x="201" y="728" type="line"/>
      <point x="149" y="520" type="line"/>
    </contour>
  </outline>
</glyph>
<glyph name="Increment" format="1">
  <advance width="1415"/>
  <unicode hex="2206"/>
  <outline>
    <contour>
      <point x="1330" y="144" type="line"/>
      <point x="1145" y="1445" type="line"/>
      <point x="870" y="1445" type="line"/>
      <point x="35" y="144" type="line"/>
      <point x="0" y="0" type="line"/>
      <point x="1295" y="0" type="line"/>
    </contour>
    <contour>
      <point x="962" y="1233" type="line"/>
      <point x="1101" y="208" type="line"/>
      <point x="316" y="208" type="line"/>
    </contour>
  </outline>
</glyph>
<glyph name="GTOrEqTo" format="1">
  <advance width="1180"/>
  <unicode hex="2265"/>
  <outline>
    <contour>
      <point x="127" y="272" type="line"/>
      <point x="1201" y="648" type="line"/>
      <point x="1248" y="837" type="line"/>
      <point x="364" y="1223" type="line"/>
      <point x="308" y="995" type="line"/>
      <point x="935" y="752" type="line"/>
      <point x="184" y="500" type="line"/>
    </contour>
    <contour>
      <point x="55" y="-20" type="line"/>
      <point x="1035" y="-20" type="line"/>
      <point x="1086" y="188" type="line"/>
      <point x="106" y="188" type="line"/>
    </contour>
  </outline>
</glyph>
<glyph name="Lozenge" format="1">
  <advance width="1025"/>
  <unicode hex="25CA"/>
  <outline>
    <contour>
      <point x="1168" y="817" type="line"/>
      <point x="939" y="1584" type="line"/>
      <point x="774" y="1584" type="line"/>
      <point x="168" y="817" type="line"/>
      <point x="380" y="0" type="line"/>
      <point x="545" y="0" type="line"/>
    </contour>
    <contour>
      <point x="968" y="827" type="line"/>
      <point x="508" y="173" type="line"/>
      <point x="363" y="807" type="line"/>
      <point x="816" y="1411" type="line"/>
    </contour>
  </outline>
</glyph>
